<svg xmlns="http://www.w3.org/2000/svg" viewBox="0 0 1200 630" role="img" aria-labelledby="title desc">
  <title id="title">Assignment 1 Calendar Dashboard Illustration</title>
  <desc id="desc">Blue tinted calendar dashboard with a mountain landscape background and timeline dots.</desc>
  <defs>
    <linearGradient id="sky" x1="0" y1="0" x2="0" y2="1">
      <stop offset="0%" stop-color="#95bbed"/>
      <stop offset="55%" stop-color="#f6bba6"/>
      <stop offset="100%" stop-color="#f4d0ac"/>
    </linearGradient>
    <linearGradient id="panel" x1="0" y1="0" x2="1" y2="0">
      <stop offset="0%" stop-color="#142c55" stop-opacity="0.95"/>
      <stop offset="100%" stop-color="#1d3f7e" stop-opacity="0.75"/>
    </linearGradient>
    <linearGradient id="water" x1="0" y1="0" x2="0" y2="1">
      <stop offset="0%" stop-color="#7aa9dd" stop-opacity="0.2"/>
      <stop offset="100%" stop-color="#ffffff" stop-opacity="0.85"/>
    </linearGradient>
  </defs>
  <rect width="1200" height="630" fill="url(#sky)"/>
  <path d="M0 360L140 330L280 360L420 310L540 350L690 280L820 320L940 270L1200 360V630H0Z" fill="#3a588b" opacity="0.65"/>
  <path d="M0 380L120 360L260 390L400 340L520 370L700 300L840 330L960 290L1200 370V630H0Z" fill="#22395d" opacity="0.7"/>
  <path d="M0 400L140 380L280 420L420 360L560 400L700 340L840 360L980 320L1200 400V630H0Z" fill="#101f36" opacity="0.8"/>
  <rect x="80" y="60" width="340" height="510" rx="28" fill="url(#panel)" opacity="0.88"/>
  <rect x="470" y="80" width="640" height="200" rx="24" fill="#b9cee6" opacity="0.35"/>
  <rect x="470" y="320" width="640" height="210" rx="26" fill="#f6f9ff" opacity="0.2"/>
  <path d="M0 460C100 430 210 420 310 450C430 488 580 472 700 440C880 392 1040 428 1200 470V630H0Z" fill="url(#water)"/>
  <g opacity="0.55">
    <rect x="110" y="120" width="280" height="44" rx="12" fill="#1f4d8a"/>
    <rect x="110" y="184" width="280" height="44" rx="12" fill="#1f4d8a" opacity="0.6"/>
    <rect x="110" y="248" width="280" height="44" rx="12" fill="#1f4d8a" opacity="0.4"/>
    <rect x="110" y="312" width="280" height="44" rx="12" fill="#1f4d8a" opacity="0.3"/>
    <rect x="110" y="376" width="280" height="44" rx="12" fill="#1f4d8a" opacity="0.25"/>
    <rect x="110" y="440" width="280" height="44" rx="12" fill="#1f4d8a" opacity="0.2"/>
  </g>
  <g fill="#ffffff" opacity="0.8">
    <circle cx="520" cy="430" r="10"/>
    <circle cx="640" cy="430" r="10" opacity="0.65"/>
    <circle cx="760" cy="430" r="10"/>
    <circle cx="880" cy="430" r="10" opacity="0.6"/>
    <circle cx="1000" cy="430" r="10"/>
  </g>
  <rect x="520" y="152" width="120" height="12" rx="6" fill="#2c4f80" opacity="0.7"/>
  <rect x="520" y="182" width="420" height="18" rx="9" fill="#2c4f80" opacity="0.45"/>
  <rect x="520" y="212" width="260" height="16" rx="8" fill="#2c4f80" opacity="0.4"/>
  <rect x="520" y="360" width="200" height="16" rx="8" fill="#305584" opacity="0.35"/>
  <rect x="520" y="388" width="380" height="18" rx="9" fill="#4f89d3" opacity="0.32"/>
</svg>



